<svg xmlns="http://www.w3.org/2000/svg" width="21.4" height="23.779" viewBox="0 0 21.4 23.779">
  <path id="icon-nghiviec" d="M-3267.658-898.221a1.081,1.081,0,0,1-1.079-1.078v-.223a1.08,1.08,0,0,1,1.079-1.078h2.492a1.189,1.189,0,0,0,1.187-1.189v-11.888h-16.644v11.888a1.187,1.187,0,0,0,1.186,1.189h2.492a1.08,1.08,0,0,1,1.079,1.078v.223a1.081,1.081,0,0,1-1.079,1.078h-3.678A2.387,2.387,0,0,1-3283-900.6v-16.644a2.386,2.386,0,0,1,2.381-2.378h1.186v-1.189a1.191,1.191,0,0,1,1.19-1.189,1.191,1.191,0,0,1,1.19,1.189v1.189h9.51v-1.189a1.191,1.191,0,0,1,1.19-1.189,1.191,1.191,0,0,1,1.19,1.189v1.189h1.187a2.385,2.385,0,0,1,2.376,2.378V-900.6a2.385,2.385,0,0,1-2.376,2.378Zm-5.832-1.189a1.189,1.189,0,0,1,1.186-1.189,1.19,1.19,0,0,1,1.19,1.189,1.19,1.19,0,0,1-1.19,1.189A1.189,1.189,0,0,1-3273.49-899.411Zm4.431-4.192-2.954-2.95-2.95,2.95a.691.691,0,0,1-.975,0,.688.688,0,0,1-.2-.49.688.688,0,0,1,.2-.489l2.95-2.951-2.95-2.949a.688.688,0,0,1-.2-.49.689.689,0,0,1,.2-.489.693.693,0,0,1,.975,0l2.95,2.951,2.954-2.951a.692.692,0,0,1,.975,0,.7.7,0,0,1,0,.978l-2.95,2.949,2.95,2.951a.7.7,0,0,1,0,.978.692.692,0,0,1-.489.2A.683.683,0,0,1-3269.059-903.6Z" transform="translate(3283.004 922)" fill="#00803d"/>
</svg>
