<svg xmlns="http://www.w3.org/2000/svg" width="39.764" height="25.333" viewBox="0 0 39.764 25.333">
  <g id="icon-thongbao-unactive" transform="translate(-541.236 -319)">
    <g id="Group_2898" data-name="Group 2898" transform="translate(-3065.482 -1627)">
      <path id="Path_4400" data-name="Path 4400" d="M7.236,3.3A4.188,4.188,0,0,0,3.052,7.486v6.275c0,.5-.007,1.042-.015,1.6-.015,1.118-.041,3.013.08,4.465a12.763,12.763,0,0,1,5.8-1.881c1.02-.025,2.913-.034,4.986-.034,4.078,0,8.857.033,8.857.033a4.188,4.188,0,0,0,4.184-4.184V7.486A4.188,4.188,0,0,0,22.759,3.3H7.236m0-3.3H22.759a7.486,7.486,0,0,1,7.486,7.486v6.275a7.486,7.486,0,0,1-7.486,7.486s-10.753-.073-13.762,0-6.606,3.083-6.606,3.083C-.764,24.478-.251,17.9-.251,13.762V7.486A7.486,7.486,0,0,1,7.236,0Z" transform="translate(3607 1947)" fill="#8f8f8f"/>
      <path id="Path_4401" data-name="Path 4401" d="M1.651,0H15.633a1.651,1.651,0,1,1,0,3.3H1.651a1.651,1.651,0,0,1,0-3.3Z" transform="translate(3613.355 1952.945)" fill="#8f8f8f"/>
      <path id="Path_4402" data-name="Path 4402" d="M1.651,0H9.028a1.651,1.651,0,0,1,0,3.3H1.651a1.651,1.651,0,0,1,0-3.3Z" transform="translate(3619.961 1958.56)" fill="#8f8f8f"/>
    </g>
    <circle id="Ellipse_7" data-name="Ellipse 7" cx="4" cy="4" r="4" transform="translate(573 319)" fill="#e60808"/>
  </g>
</svg>
