<svg xmlns="http://www.w3.org/2000/svg" width="19.591" height="19.592" viewBox="0 0 19.591 19.592">
  <path id="icon-update" d="M24.093,12.25h-7.38L19.7,9.18A7.662,7.662,0,0,0,8.941,9.072a7.483,7.483,0,0,0,0,10.656,7.641,7.641,0,0,0,10.754,0,7.089,7.089,0,0,0,2.22-5.323h2.177a10.167,10.167,0,0,1-2.874,6.846,9.855,9.855,0,0,1-13.845,0A9.622,9.622,0,0,1,7.352,7.559a9.782,9.782,0,0,1,13.769,0L24.093,4.5ZM14.841,9.942v4.626l3.81,2.264-.784,1.317-4.659-2.765V9.942Z" transform="translate(-4.502 -4.5)" fill="#00803d"/>
</svg>
