<svg xmlns="http://www.w3.org/2000/svg" width="18.645" height="20.598" viewBox="0 0 18.645 20.598">
  <path id="icon-dondanhan" d="M-3052.963-1139.4a.524.524,0,0,1-.533-.533.524.524,0,0,1,.533-.533h10.3a1.236,1.236,0,0,0,1.243-1.243v-11.72a.523.523,0,0,1,.533-.533.524.524,0,0,1,.533.533v11.72a2.3,2.3,0,0,1-2.308,2.308Zm-3.214-1.936-2.663-2.663a.515.515,0,0,1,0-.746l2.663-2.663a.515.515,0,0,1,.746,0,.514.514,0,0,1,0,.745l-1.758,1.759h5.824a.523.523,0,0,1,.533.532.523.523,0,0,1-.533.533h-5.824l1.758,1.759a.542.542,0,0,1,.16.373.542.542,0,0,1-.16.373.493.493,0,0,1-.366.16A.536.536,0,0,1-3056.177-1141.338Zm12.508-.654v-.683a.341.341,0,0,1,.341-.341.341.341,0,0,1,.342.341v.683a.343.343,0,0,1-.342.342A.342.342,0,0,1-3043.669-1141.992Zm-1.708,0v-.683a.342.342,0,0,1,.342-.341.341.341,0,0,1,.341.341v.683a.342.342,0,0,1-.341.342A.343.343,0,0,1-3045.377-1141.992Zm-1.707,0v-.683a.341.341,0,0,1,.341-.341.342.342,0,0,1,.342.341v.683a.343.343,0,0,1-.342.342A.342.342,0,0,1-3047.084-1141.992Zm-1.708,0v-.683a.342.342,0,0,1,.341-.341.341.341,0,0,1,.342.341v.683a.342.342,0,0,1-.342.342A.343.343,0,0,1-3048.792-1141.992Zm-1.708,0v-.683a.342.342,0,0,1,.342-.341.341.341,0,0,1,.341.341v.683a.342.342,0,0,1-.341.342A.343.343,0,0,1-3050.5-1141.992Zm-5.836-8.419v-7.28a2.3,2.3,0,0,1,2.309-2.308h9.589a4.084,4.084,0,0,1,4.084,4.084c0,.533-.515.533-.817.533h-1.491a2.3,2.3,0,0,1-2.309-2.308v-1.243h-9.056a1.235,1.235,0,0,0-1.243,1.243v7.28a.523.523,0,0,1-.533.533A.523.523,0,0,1-3056.336-1150.411Zm12.43-7.28a1.235,1.235,0,0,0,1.243,1.243h1.19a3,3,0,0,0-2.433-2.433Zm-3.262.7v-.683a.342.342,0,0,1,.342-.342.341.341,0,0,1,.341.342v.683a.342.342,0,0,1-.341.341A.342.342,0,0,1-3047.169-1156.991Zm-1.707,0v-.683a.341.341,0,0,1,.341-.342.342.342,0,0,1,.342.342v.683a.342.342,0,0,1-.342.341A.341.341,0,0,1-3048.876-1156.991Zm-1.708,0v-.683a.341.341,0,0,1,.342-.342.341.341,0,0,1,.341.342v.683a.342.342,0,0,1-.341.341A.342.342,0,0,1-3050.584-1156.991Zm-1.708,0v-.683a.342.342,0,0,1,.342-.342.342.342,0,0,1,.342.342v.683a.342.342,0,0,1-.342.341A.342.342,0,0,1-3052.292-1156.991Zm-1.707,0v-.683a.341.341,0,0,1,.341-.342.342.342,0,0,1,.342.342v.683a.342.342,0,0,1-.342.341A.342.342,0,0,1-3054-1156.991Z" transform="translate(3059 1160)" fill="#8f8f8f"/>
</svg>
