<svg xmlns="http://www.w3.org/2000/svg" xmlns:xlink="http://www.w3.org/1999/xlink" width="218.11" height="70.264" viewBox="0 0 218.11 70.264">
  <defs>
    <clipPath id="clip-path">
      <path id="Path_4304" data-name="Path 4304" d="M321.272,56.273l3.575,4.976v-16.5Z" transform="translate(-321.272 -44.746)" fill="none" clip-rule="evenodd"/>
    </clipPath>
    <linearGradient id="linear-gradient" x1="-15.402" y1="2.652" x2="-15.365" y2="2.652" gradientUnits="objectBoundingBox">
      <stop offset="0" stop-color="#ffcb05"/>
      <stop offset="1" stop-color="#ed1c24"/>
    </linearGradient>
    <clipPath id="clip-path-2">
      <path id="Path_4305" data-name="Path 4305" d="M305.705,60.987l8.037,7.908,6.383-2.885-14.42-5.043Z" transform="translate(-305.705 -60.967)" fill="none" clip-rule="evenodd"/>
    </clipPath>
    <linearGradient id="linear-gradient-2" x1="-13.053" y1="2.455" x2="-13.012" y2="2.455" xlink:href="#linear-gradient"/>
    <clipPath id="clip-path-3">
      <path id="Path_4306" data-name="Path 4306" d="M326.214,75.06l9.5,6.447h.052l-9.471-13.329Z" transform="translate(-326.214 -68.178)" fill="none" clip-rule="evenodd"/>
    </clipPath>
    <linearGradient id="linear-gradient-3" x1="-14.239" y1="1.733" x2="-14.198" y2="1.733" xlink:href="#linear-gradient"/>
    <clipPath id="clip-path-4">
      <path id="Path_4307" data-name="Path 4307" d="M341.463,61.691v-.053L326.249,66.2l6.783,2.15Z" transform="translate(-326.249 -61.638)" fill="none" clip-rule="evenodd"/>
    </clipPath>
    <linearGradient id="linear-gradient-4" x1="-15.13" y1="4.004" x2="-15.084" y2="4.004" xlink:href="#linear-gradient"/>
    <clipPath id="clip-path-5">
      <path id="Path_4308" data-name="Path 4308" d="M315.389,70.771l-3.146,10.7,9.812-13.228-.066-.011Z" transform="translate(-312.243 -68.235)" fill="none" clip-rule="evenodd"/>
    </clipPath>
    <linearGradient id="linear-gradient-5" x1="-14.657" y1="1.904" x2="-14.612" y2="1.904" xlink:href="#linear-gradient"/>
  </defs>
  <g id="Group_2882" data-name="Group 2882" transform="translate(-56.832 -24.334)">
    <path id="Path_4300" data-name="Path 4300" d="M185.846,70.549h-8.283l-10.84-35.356H174.3l7.417,24.861h.114l7.508-24.861h7.576Z" transform="translate(-33.042 -3.265)" fill="#00803d"/>
    <path id="Path_4301" data-name="Path 4301" d="M212.942,35.193h7.28l13.943,23.724h.092V35.193h6.869V70.549h-7.348L219.9,46.874h-.091V70.549h-6.869Z" transform="translate(-46.939 -3.265)" fill="#00803d"/>
    <path id="Path_4302" data-name="Path 4302" d="M286.707,56.6q0,13.846-14.24,13.846-14.218,0-14.217-13.846v-21.4H265.6V56.6a14.385,14.385,0,0,0,.228,2.756,6.546,6.546,0,0,0,.981,2.4q1.621,2.309,5.66,2.308,3.811,0,5.409-1.813,1.506-1.7,1.506-5.651v-21.4h7.325Z" transform="translate(-60.563 -3.265)" fill="#00803d"/>
    <g id="Group_2876" data-name="Group 2876" transform="translate(230.873 24.334)">
      <path id="Path_4303" data-name="Path 4303" d="M316.661,56.239l3.594-11.447,4.21,11.683h11.021l-8.608,6.813,2.79,11.257-9.555-6.624-9.79,6.528,3.171-10.927-7.712-7.379Z" transform="translate(-305.728 -30.485)" fill="#fcba12"/>
      <g id="Group_2867" data-name="Group 2867" transform="translate(10.887 14.274)">
        <g id="Group_2866" data-name="Group 2866" clip-path="url(#clip-path)">
          <rect id="Rectangle_314" data-name="Rectangle 314" width="14.198" height="14.198" transform="matrix(0.707, -0.707, 0.707, 0.707, -8.252, 8.252)" fill="url(#linear-gradient)"/>
        </g>
      </g>
      <g id="Group_2869" data-name="Group 2869" transform="translate(0 25.618)">
        <g id="Group_2868" data-name="Group 2868" clip-path="url(#clip-path-2)">
          <rect id="Rectangle_315" data-name="Rectangle 315" width="16.258" height="12.363" transform="translate(-2.537 0.918) rotate(-19.899)" fill="url(#linear-gradient-2)"/>
        </g>
      </g>
      <g id="Group_2871" data-name="Group 2871" transform="translate(14.342 30.661)">
        <g id="Group_2870" data-name="Group 2870" clip-path="url(#clip-path-3)">
          <rect id="Rectangle_316" data-name="Rectangle 316" width="15.799" height="13.549" transform="translate(-4.302 11.754) rotate(-69.898)" fill="url(#linear-gradient-3)"/>
        </g>
      </g>
      <g id="Group_2873" data-name="Group 2873" transform="translate(14.367 26.088)">
        <g id="Group_2872" data-name="Group 2872" clip-path="url(#clip-path-4)">
          <rect id="Rectangle_317" data-name="Rectangle 317" width="15.214" height="6.714" fill="url(#linear-gradient-4)"/>
        </g>
      </g>
      <g id="Group_2875" data-name="Group 2875" transform="translate(4.572 30.701)">
        <g id="Group_2874" data-name="Group 2874" clip-path="url(#clip-path-5)">
          <rect id="Rectangle_318" data-name="Rectangle 318" width="14.742" height="11.961" transform="matrix(0.174, -0.985, 0.985, 0.174, -2.264, 12.84)" fill="url(#linear-gradient-5)"/>
        </g>
      </g>
      <path id="Path_4309" data-name="Path 4309" d="M325.631,40.387a1.54,1.54,0,1,0,1.541,1.54,1.538,1.538,0,0,0-1.541-1.54m0,2.5a.96.96,0,1,1,.958-.96A.962.962,0,0,1,325.631,42.887Z" transform="translate(-311.234 -29.161)" fill="#fcba12"/>
      <rect id="Rectangle_319" data-name="Rectangle 319" width="19.369" height="3.439" transform="translate(4.714 7.835)" fill="#fcba12"/>
      <rect id="Rectangle_320" data-name="Rectangle 320" width="19.369" height="3.44" transform="translate(4.714)" fill="#fcba12"/>
      <rect id="Rectangle_321" data-name="Rectangle 321" width="16.242" height="8.344" transform="translate(6.275 1.402)" fill="#bf1f2e"/>
    </g>
    <g id="Group_2877" data-name="Group 2877" transform="translate(197.963 24.334)">
      <path id="Path_4310" data-name="Path 4310" d="M259.138,27.615a.769.769,0,0,0,.176.553.737.737,0,0,0,.553.183,1.1,1.1,0,0,0,.5-.1.716.716,0,0,0,.317-.3.915.915,0,0,0,.107-.455.745.745,0,0,0-.069-.329.93.93,0,0,0-.2-.273,3.05,3.05,0,0,0-.4-.3,2.912,2.912,0,0,1-.389-.3,1.207,1.207,0,0,1-.244-.331.9.9,0,0,1-.092-.411,1.154,1.154,0,0,1,.178-.638,1.173,1.173,0,0,1,.51-.426,1.783,1.783,0,0,1,.756-.151,3.478,3.478,0,0,1,.538.039,3.748,3.748,0,0,1,.548.13l-.176.788h-.3a1.07,1.07,0,0,0-.082-.409.428.428,0,0,0-.2-.214.785.785,0,0,0-.344-.064.978.978,0,0,0-.461.1.731.731,0,0,0-.3.283.782.782,0,0,0-.1.4.68.68,0,0,0,.056.285.816.816,0,0,0,.181.247,2.642,2.642,0,0,0,.365.281,3.206,3.206,0,0,1,.472.373,1.155,1.155,0,0,1,.24.348,1.107,1.107,0,0,1,.077.427,1.2,1.2,0,0,1-.185.66,1.223,1.223,0,0,1-.52.448,1.788,1.788,0,0,1-.765.158,4.928,4.928,0,0,1-.623-.043,4.718,4.718,0,0,1-.606-.117l.19-.843Z" transform="translate(-258.644 -24.334)" fill="#00803d"/>
      <path id="Path_4311" data-name="Path 4311" d="M264.1,27.846c-.024.1-.038.18-.043.229a1.1,1.1,0,0,0-.009.12.292.292,0,0,0,.029.145.206.206,0,0,0,.1.079.805.805,0,0,0,.217.043l-.029.15h-.978l.478-2.067c.027-.118.047-.213.055-.283a1.108,1.108,0,0,0,.017-.177.292.292,0,0,0-.027-.137.168.168,0,0,0-.09-.074.748.748,0,0,0-.217-.031l.034-.162.771-.028h.185Zm.78-3.367-.145.6h-.557l.144-.6Z" transform="translate(-260.069 -24.378)" fill="#00803d"/>
      <path id="Path_4312" data-name="Path 4312" d="M268.591,29.108H267.6l.4-1.558c.024-.1.05-.21.074-.331a1.686,1.686,0,0,0,.035-.324.5.5,0,0,0-.077-.314.294.294,0,0,0-.241-.094.53.53,0,0,0-.285.1,1.536,1.536,0,0,0-.32.3,2.65,2.65,0,0,0-.283.4,1.789,1.789,0,0,0-.178.5l-.287,1.328h-.545l.479-2.094c.012-.047.025-.116.044-.208a1.32,1.32,0,0,0,.025-.23.293.293,0,0,0-.025-.134.174.174,0,0,0-.094-.071.939.939,0,0,0-.219-.033l.038-.162.717-.028h.178l-.21.8.036.012a2.749,2.749,0,0,1,.6-.627.983.983,0,0,1,.574-.2.611.611,0,0,1,.463.164.673.673,0,0,1,.158.486,1.509,1.509,0,0,1-.02.241c-.014.087-.029.164-.046.232l-.266,1.091a1.561,1.561,0,0,0-.052.349.269.269,0,0,0,.031.145.2.2,0,0,0,.1.079.832.832,0,0,0,.218.043Z" transform="translate(-260.823 -24.873)" fill="#00803d"/>
      <path id="Path_4313" data-name="Path 4313" d="M272.882,26.912a1.4,1.4,0,0,0-.039-.337.3.3,0,0,0-.108-.157.366.366,0,0,0-.21-.052.8.8,0,0,0-.573.247,1.8,1.8,0,0,0-.415.7,2.6,2.6,0,0,0-.16.869,1.122,1.122,0,0,0,.024.242.512.512,0,0,0,.082.2.4.4,0,0,0,.154.131.544.544,0,0,0,.244.048,1.094,1.094,0,0,0,.5-.106,1.836,1.836,0,0,0,.444-.333l.192.187a2.1,2.1,0,0,1-.6.466,1.455,1.455,0,0,1-.649.147.885.885,0,0,1-.694-.264,1.112,1.112,0,0,1-.237-.766,2.353,2.353,0,0,1,.127-.72,2.033,2.033,0,0,1,.369-.69,1.551,1.551,0,0,1,.567-.445,1.669,1.669,0,0,1,.7-.148,2.959,2.959,0,0,1,.439.028c.125.019.237.041.335.064l-.157.693Z" transform="translate(-262.31 -24.873)" fill="#00803d"/>
      <path id="Path_4314" data-name="Path 4314" d="M277.02,28.5a2.823,2.823,0,0,1-.449.392,1.55,1.55,0,0,1-.429.2,1.722,1.722,0,0,1-.473.061,1.085,1.085,0,0,1-.429-.078.841.841,0,0,1-.3-.214.885.885,0,0,1-.174-.327,1.361,1.361,0,0,1-.057-.408,2.271,2.271,0,0,1,.122-.7,2.036,2.036,0,0,1,.367-.673,1.732,1.732,0,0,1,.59-.464,1.686,1.686,0,0,1,.733-.164.921.921,0,0,1,.573.15.564.564,0,0,1,.192.47.836.836,0,0,1-.5.781,3.356,3.356,0,0,1-1.494.261,1.926,1.926,0,0,0-.039.4.7.7,0,0,0,.129.468.543.543,0,0,0,.423.145,1.127,1.127,0,0,0,.527-.122,2.141,2.141,0,0,0,.5-.376Zm-1.68-.973a4.413,4.413,0,0,0,.51-.032,2.168,2.168,0,0,0,.377-.08,1.059,1.059,0,0,0,.263-.122.638.638,0,0,0,.165-.154.536.536,0,0,0,.085-.178.771.771,0,0,0,.022-.194.444.444,0,0,0-.089-.294.331.331,0,0,0-.266-.1.73.73,0,0,0-.434.154,1.441,1.441,0,0,0-.376.418A2.375,2.375,0,0,0,275.34,27.525Z" transform="translate(-263.474 -24.872)" fill="#00803d"/>
      <path id="Path_4315" data-name="Path 4315" d="M282.672,27.682a1.855,1.855,0,0,0-.057.359.234.234,0,0,0,.066.183.44.44,0,0,0,.22.086,3.712,3.712,0,0,0,.473.035l-.048.224H281.1l.049-.224c.176-.008.311-.02.406-.034a.958.958,0,0,0,.229-.057.43.43,0,0,0,.14-.089.466.466,0,0,0,.1-.138,1.271,1.271,0,0,0,.079-.257l.5-2.224c.02-.085.034-.154.043-.2a.745.745,0,0,0,.014-.126.16.16,0,0,0-.047-.131.18.18,0,0,0-.114-.038.676.676,0,0,0-.249.078q-.169.079-.5.269l-.123-.245,1.6-.813h.216l-.091.359c-.034.131-.069.283-.107.456Z" transform="translate(-265.396 -24.334)" fill="#00803d"/>
      <path id="Path_4316" data-name="Path 4316" d="M288.169,26.591a1.91,1.91,0,0,1-.457.22,1.609,1.609,0,0,1-.477.072,1.026,1.026,0,0,1-.511-.125.837.837,0,0,1-.339-.357,1.182,1.182,0,0,1-.119-.545,1.757,1.757,0,0,1,.056-.429,1.445,1.445,0,0,1,.173-.422,1.367,1.367,0,0,1,.74-.585,1.677,1.677,0,0,1,.543-.084,1.167,1.167,0,0,1,.5.1.988.988,0,0,1,.358.276,1.208,1.208,0,0,1,.213.419,1.768,1.768,0,0,1,.074.53,3.3,3.3,0,0,1-.061.592,3.029,3.029,0,0,1-.154.539,3.4,3.4,0,0,1-.256.515,2.887,2.887,0,0,1-.341.444,2.753,2.753,0,0,1-.4.359,2.707,2.707,0,0,1-.454.266,2.751,2.751,0,0,1-.5.172,2.6,2.6,0,0,1-.52.07l-.117-.168.032-.151a2.513,2.513,0,0,0,.942-.242,1.923,1.923,0,0,0,.668-.555,3,3,0,0,0,.448-.9Zm-.714-.017a1.1,1.1,0,0,0,.371-.068,1.066,1.066,0,0,0,.3-.16.6.6,0,0,0,.147-.143.657.657,0,0,0,.09-.255,2.857,2.857,0,0,0,.028-.435,1.129,1.129,0,0,0-.173-.686.6.6,0,0,0-.512-.231.71.71,0,0,0-.45.162,1.072,1.072,0,0,0-.322.457,1.758,1.758,0,0,0-.117.645.807.807,0,0,0,.15.539A.61.61,0,0,0,287.455,26.574Z" transform="translate(-266.902 -24.334)" fill="#00803d"/>
      <path id="Path_4317" data-name="Path 4317" d="M291.862,28.617a1.074,1.074,0,0,1-.5-.108.724.724,0,0,1-.325-.352,1.545,1.545,0,0,1-.115-.647,4.531,4.531,0,0,1,.075-.778,5.071,5.071,0,0,1,.207-.79,3.722,3.722,0,0,1,.314-.674,2.442,2.442,0,0,1,.4-.511,1.635,1.635,0,0,1,.468-.315,1.274,1.274,0,0,1,.513-.11,1.086,1.086,0,0,1,.443.08.759.759,0,0,1,.29.222.889.889,0,0,1,.161.341,1.759,1.759,0,0,1,.05.434,4.674,4.674,0,0,1-.2,1.335,3.874,3.874,0,0,1-.509,1.121,1.868,1.868,0,0,1-.616.579,1.327,1.327,0,0,1-.657.171m-.394-.913a1.372,1.372,0,0,0,.044.388.386.386,0,0,0,.136.2.448.448,0,0,0,.253.062.66.66,0,0,0,.459-.217,2.144,2.144,0,0,0,.419-.65,6.044,6.044,0,0,0,.359-1.106,5.121,5.121,0,0,0,.162-1.166.877.877,0,0,0-.1-.473.357.357,0,0,0-.317-.149.589.589,0,0,0-.272.068,1,1,0,0,0-.312.272,2.582,2.582,0,0,0-.347.608,5.914,5.914,0,0,0-.255.764c-.056.209-.1.414-.14.613A4.062,4.062,0,0,0,291.467,27.7Z" transform="translate(-268.349 -24.334)" fill="#00803d"/>
      <path id="Path_4318" data-name="Path 4318" d="M296.654,26.361a2.192,2.192,0,0,1,.479-.219,1.63,1.63,0,0,1,.479-.072,1.044,1.044,0,0,1,.483.112.826.826,0,0,1,.343.342,1.14,1.14,0,0,1,.129.561,1.917,1.917,0,0,1-.055.443,1.546,1.546,0,0,1-.176.422,1.281,1.281,0,0,1-.307.347,1.41,1.41,0,0,1-.436.234,1.72,1.72,0,0,1-.567.086,1.125,1.125,0,0,1-.494-.1.957.957,0,0,1-.348-.275,1.207,1.207,0,0,1-.208-.413,1.784,1.784,0,0,1-.07-.512,3.265,3.265,0,0,1,.037-.488,3.07,3.07,0,0,1,.156-.6,2.68,2.68,0,0,1,.367-.667,2.943,2.943,0,0,1,.576-.577,3.315,3.315,0,0,1,.748-.422,3.391,3.391,0,0,1,.869-.225l.115.169-.031.15a2.261,2.261,0,0,0-1.3.489,2.689,2.689,0,0,0-.822,1.206Zm-.241,1.107a1.066,1.066,0,0,0,.175.667.621.621,0,0,0,.519.222.722.722,0,0,0,.455-.158,1.015,1.015,0,0,0,.32-.443,1.7,1.7,0,0,0,.115-.644q0-.732-.622-.731a1.1,1.1,0,0,0-.209.02,1.118,1.118,0,0,0-.208.062,1.242,1.242,0,0,0-.2.1,1.034,1.034,0,0,0-.152.113.42.42,0,0,0-.074.1.536.536,0,0,0-.051.129,2.256,2.256,0,0,0-.044.271A2.082,2.082,0,0,0,296.413,27.468Z" transform="translate(-269.848 -24.334)" fill="#00803d"/>
    </g>
    <g id="Group_2878" data-name="Group 2878" transform="translate(133.051 71.993)">
      <path id="Path_4319" data-name="Path 4319" d="M166.426,100.208h-.6V99.145h.6V96.507h2.819a2.84,2.84,0,0,1,2.118.8,3.33,3.33,0,0,1,.849,2.441,3.585,3.585,0,0,1-.738,2.369,2.735,2.735,0,0,1-2.229.946h-2.819Zm1.438-1.063h1.461v1.072h-1.461v1.637h1.278a1.509,1.509,0,0,0,1.13-.439,2.115,2.115,0,0,0,.5-1.53,2.558,2.558,0,0,0-.406-1.578,1.754,1.754,0,0,0-1.479-.588h-1.023Z" transform="translate(-165.822 -93.694)" fill="#00803d"/>
      <path id="Path_4320" data-name="Path 4320" d="M177.866,96.507h1.473l2.443,6.558H180.29l-.5-1.462h-2.443l-.509,1.462h-1.456Zm-.139,4.024h1.693l-.822-2.409h-.017Zm1.416,4.073h-1.134v-.866h1.134Z" transform="translate(-168.698 -93.694)" fill="#00803d"/>
      <path id="Path_4321" data-name="Path 4321" d="M185.331,96.507h1.439v6.558h-1.439Z" transform="translate(-171.688 -93.694)" fill="#00803d"/>
      <path id="Path_4322" data-name="Path 4322" d="M192.824,96.507h1.438v2.517h2.64V96.507h1.438v6.558H196.9v-2.831h-2.64v2.831h-1.438Z" transform="translate(-173.941 -93.694)" fill="#00803d"/>
      <path id="Path_4323" data-name="Path 4323" d="M202.954,97.283a3.292,3.292,0,0,1,4.726,0,3.581,3.581,0,0,1,.849,2.463,3.479,3.479,0,0,1-.849,2.413,3.3,3.3,0,0,1-4.726,0,3.479,3.479,0,0,1-.849-2.413A3.581,3.581,0,0,1,202.954,97.283Zm.992,3.97a1.713,1.713,0,0,0,2.743,0,2.615,2.615,0,0,0,.4-1.507,2.755,2.755,0,0,0-.4-1.557,1.7,1.7,0,0,0-2.743,0,2.749,2.749,0,0,0-.4,1.557A2.61,2.61,0,0,0,203.946,101.253Zm1.939,3.283H204.75v-.866h1.135Z" transform="translate(-176.732 -93.627)" fill="#00803d"/>
      <path id="Path_4324" data-name="Path 4324" d="M216.918,98.642a1.231,1.231,0,0,0-.478-.817,1.459,1.459,0,0,0-.946-.332,1.551,1.551,0,0,0-1.372.7,2.755,2.755,0,0,0-.4,1.557,2.616,2.616,0,0,0,.4,1.507,1.557,1.557,0,0,0,1.372.687q1.294,0,1.483-1.467h1.389a2.935,2.935,0,0,1-.892,1.956,2.786,2.786,0,0,1-1.979.727,3.015,3.015,0,0,1-2.364-1,3.479,3.479,0,0,1-.849-2.413,3.581,3.581,0,0,1,.849-2.463,3,3,0,0,1,2.364-1,2.929,2.929,0,0,1,1.88.61,2.516,2.516,0,0,1,.938,1.75Z" transform="translate(-179.791 -93.627)" fill="#00803d"/>
      <path id="Path_4325" data-name="Path 4325" d="M231.324,103.613l-.924-.843a3.115,3.115,0,0,1-1.582.386,3.014,3.014,0,0,1-2.363-1,3.479,3.479,0,0,1-.849-2.413,3.581,3.581,0,0,1,.849-2.463,3.292,3.292,0,0,1,4.726,0,3.581,3.581,0,0,1,.849,2.463,3.527,3.527,0,0,1-.853,2.418l.818.745Zm-1.876-3.041.741.682a2.539,2.539,0,0,0,.4-1.507,2.755,2.755,0,0,0-.4-1.557,1.7,1.7,0,0,0-2.743,0,2.754,2.754,0,0,0-.4,1.557,2.615,2.615,0,0,0,.4,1.507,1.557,1.557,0,0,0,1.371.687h.165a1.425,1.425,0,0,0,.166-.009.43.43,0,0,0,.245-.081l-.612-.561Z" transform="translate(-183.798 -93.627)" fill="#00803d"/>
      <path id="Path_4326" data-name="Path 4326" d="M241.724,100.585q0,2.637-2.788,2.638t-2.783-2.638V96.507h1.438v4.078a2.648,2.648,0,0,0,.045.524,1.222,1.222,0,0,0,.192.458,1.275,1.275,0,0,0,1.108.44,1.37,1.37,0,0,0,1.058-.346,1.576,1.576,0,0,0,.294-1.076V96.507h1.435Z" transform="translate(-186.969 -93.694)" fill="#00803d"/>
      <path id="Path_4327" data-name="Path 4327" d="M246.322,96.141a3.292,3.292,0,0,1,4.726,0A3.58,3.58,0,0,1,251.9,98.6a3.479,3.479,0,0,1-.848,2.413,3.3,3.3,0,0,1-4.726,0,3.479,3.479,0,0,1-.848-2.413A3.58,3.58,0,0,1,246.322,96.141Zm.992,3.97a1.713,1.713,0,0,0,2.743,0,2.615,2.615,0,0,0,.4-1.507,2.754,2.754,0,0,0-.4-1.557,1.7,1.7,0,0,0-2.743,0,2.755,2.755,0,0,0-.4,1.557A2.616,2.616,0,0,0,247.314,100.111Zm2.9-5.4h-.8l-.725-.731-.728.731h-.8l.906-1.3h1.25Zm.143-.929h-.67l.745-1.3h1.331Z" transform="translate(-189.772 -92.485)" fill="#00803d"/>
      <path id="Path_4328" data-name="Path 4328" d="M260.286,98.642a1.232,1.232,0,0,0-.478-.817,1.465,1.465,0,0,0-.948-.332,1.551,1.551,0,0,0-1.371.7,2.755,2.755,0,0,0-.4,1.557,2.616,2.616,0,0,0,.4,1.507,1.557,1.557,0,0,0,1.371.687q1.3,0,1.483-1.467h1.39a2.94,2.94,0,0,1-.894,1.956,2.784,2.784,0,0,1-1.979.727,3.013,3.013,0,0,1-2.363-1,3.479,3.479,0,0,1-.849-2.413,3.581,3.581,0,0,1,.849-2.463,3,3,0,0,1,2.363-1,2.933,2.933,0,0,1,1.881.61,2.517,2.517,0,0,1,.937,1.75Z" transform="translate(-192.831 -93.627)" fill="#00803d"/>
      <path id="Path_4329" data-name="Path 4329" d="M273.978,102.254a2.287,2.287,0,0,1-.849.7,2.192,2.192,0,0,1-.943.206,3.013,3.013,0,0,1-2.363-1,3.479,3.479,0,0,1-.848-2.413,3.58,3.58,0,0,1,.848-2.463,3,3,0,0,1,2.363-1,2.853,2.853,0,0,1,1.818.6,2.4,2.4,0,0,1,.934,1.713h-1.371a1.283,1.283,0,0,0-1.38-1.1,1.552,1.552,0,0,0-1.371.7,2.755,2.755,0,0,0-.4,1.557,2.615,2.615,0,0,0,.4,1.507,1.558,1.558,0,0,0,1.371.687,1.392,1.392,0,0,0,1.555-1.413h-1.448V99.45h2.747V103h-.916Z" transform="translate(-196.838 -93.627)" fill="#00803d"/>
      <path id="Path_4330" data-name="Path 4330" d="M279.309,96.507h1.439v6.558h-1.439Z" transform="translate(-199.945 -93.694)" fill="#00803d"/>
      <path id="Path_4331" data-name="Path 4331" d="M284.658,96.507h1.474l2.443,6.558h-1.492l-.5-1.462h-2.443l-.509,1.462h-1.456Zm-.139,4.024h1.693l-.822-2.409h-.017Z" transform="translate(-200.808 -93.694)" fill="#00803d"/>
      <path id="Path_4332" data-name="Path 4332" d="M295.759,96.507H297.2v2.517h2.641V96.507h1.438v6.558h-1.438v-2.831H297.2v2.831h-1.438Z" transform="translate(-204.892 -93.694)" fill="#00803d"/>
      <path id="Path_4333" data-name="Path 4333" d="M306.938,95.683h1.473l2.443,6.558h-1.492l-.5-1.462h-2.443l-.509,1.462h-1.456ZM306,93.768h1.331l.746,1.3h-.67Zm.8,5.939h1.693l-.822-2.409h-.018Z" transform="translate(-207.508 -92.871)" fill="#00803d"/>
      <path id="Path_4334" data-name="Path 4334" d="M318.039,96.507h1.425l2.729,4.4h.018v-4.4h1.344v6.558h-1.439L319.4,98.673h-.018v4.392h-1.345Z" transform="translate(-211.591 -93.694)" fill="#00803d"/>
      <path id="Path_4335" data-name="Path 4335" d="M328.169,96.54a3.292,3.292,0,0,1,4.726,0A3.577,3.577,0,0,1,333.744,99a3.476,3.476,0,0,1-.849,2.413,3.3,3.3,0,0,1-4.726,0A3.482,3.482,0,0,1,327.32,99,3.584,3.584,0,0,1,328.169,96.54Zm.992,3.97a1.713,1.713,0,0,0,2.743,0,2.611,2.611,0,0,0,.4-1.507,2.749,2.749,0,0,0-.4-1.557,1.7,1.7,0,0,0-2.743,0,2.755,2.755,0,0,0-.4,1.557A2.616,2.616,0,0,0,329.161,100.51Zm2.9-5.4h-.8l-.723-.731-.729.731H329l.906-1.3h1.251Zm-.96,8.68h-1.135v-.866H331.1Z" transform="translate(-214.381 -92.884)" fill="#00803d"/>
      <path id="Path_4336" data-name="Path 4336" d="M337.9,96.507h1.439v6.558H337.9Z" transform="translate(-217.564 -93.694)" fill="#00803d"/>
    </g>
    <g id="Group_2880" data-name="Group 2880" transform="translate(56.832 24.334)">
      <path id="Path_4337" data-name="Path 4337" d="M91.988,24.334A35.132,35.132,0,1,0,127.1,59.489,35.242,35.242,0,0,0,91.988,24.334Zm.052,68.312A33.205,33.205,0,1,1,125.2,59.489,33.352,33.352,0,0,1,92.04,92.646Z" transform="translate(-56.832 -24.334)" fill="#00803d"/>
      <path id="Path_4338" data-name="Path 4338" d="M81.417,34.156c0,13.649-.051,27.152-.051,40.7-1.231-1.9-3.334-2.4-5.285-2.7h-11.4l.771,1.852,10.57-.1a5.487,5.487,0,0,1,5.339,3.548v3.1c-1.231-1.846-3.288-2.353-5.185-2.6L67.3,77.91l1.074,1.7,7.753-.1a5.474,5.474,0,0,1,5.235,3.5v2.7c-1.077-1.9-2.876-2.648-5.185-2.7l-5.234-.047,1.845,1.9,3.544-.1c3.337.348,5.132,2.3,5.749,5.748v.15c.05.1.05.252.106.4l-.056-.649a.576.576,0,0,0,.056-.3v.152l.764-2.2a6.515,6.515,0,0,1,5.852-3.256h27.2l1.748-1.85c-10.728,0-18.322.047-28.994.047-2.106.255-4.213.7-5.651,2.25V82.509a6.638,6.638,0,0,1,5.7-2.948H120.37l1.18-1.852c-10.724,0-22.117.052-32.789.052-2.106.247-4.213.7-5.651,2.247v-3a6.634,6.634,0,0,1,5.7-2.95H123.3l.664-1.849c-10.728,0-24.531.047-35.2.047-2.106.252-4.213.7-5.651,2.254V33.2Z" transform="translate(-59.193 -27.001)" fill="#00803d"/>
      <g id="Group_2879" data-name="Group 2879" transform="translate(27.423 35.836)">
        <path id="Path_4339" data-name="Path 4339" d="M96.616,79.273h-.57v-1h.57V75.79H99.28a2.683,2.683,0,0,1,2,.756,3.125,3.125,0,0,1,.8,2.3,3.356,3.356,0,0,1-.7,2.229,2.591,2.591,0,0,1-2.107.892H96.616Zm1.36-1h1.38v1.01h-1.38v1.541h1.208a1.427,1.427,0,0,0,1.068-.414,1.985,1.985,0,0,0,.472-1.44,2.4,2.4,0,0,0-.384-1.487,1.665,1.665,0,0,0-1.4-.553h-.966Z" transform="translate(-96.046 -75.642)" fill="#00803d"/>
        <path id="Path_4340" data-name="Path 4340" d="M105.712,75.79h1.359v2.369h2.5V75.79h1.36v6.174h-1.36V79.3h-2.5v2.665h-1.359Z" transform="translate(-98.952 -75.642)" fill="#00803d"/>
        <path id="Path_4341" data-name="Path 4341" d="M119.58,82.477l-.874-.794a2.948,2.948,0,0,1-1.494.364,2.857,2.857,0,0,1-2.234-.937,3.27,3.27,0,0,1-.8-2.272,3.364,3.364,0,0,1,.8-2.318,3.12,3.12,0,0,1,4.468,0,3.361,3.361,0,0,1,.8,2.318,3.314,3.314,0,0,1-.806,2.276l.772.7Zm-1.773-2.863.7.643a2.384,2.384,0,0,0,.38-1.419,2.579,2.579,0,0,0-.38-1.465,1.611,1.611,0,0,0-2.593,0,2.579,2.579,0,0,0-.38,1.465,2.456,2.456,0,0,0,.38,1.419,1.474,1.474,0,0,0,1.3.645h.156a1.294,1.294,0,0,0,.157-.008.406.406,0,0,0,.231-.076l-.578-.528Z" transform="translate(-101.497 -75.578)" fill="#00803d"/>
        <path id="Path_4342" data-name="Path 4342" d="M128.214,81.2a2.151,2.151,0,0,1-.8.655,2.074,2.074,0,0,1-.892.194,2.855,2.855,0,0,1-2.233-.937,3.268,3.268,0,0,1-.8-2.272,3.361,3.361,0,0,1,.8-2.318,2.837,2.837,0,0,1,2.233-.942,2.7,2.7,0,0,1,1.718.566,2.256,2.256,0,0,1,.883,1.613h-1.3a1.21,1.21,0,0,0-1.3-1.038,1.462,1.462,0,0,0-1.3.655,2.574,2.574,0,0,0-.38,1.465,2.451,2.451,0,0,0,.38,1.419,1.47,1.47,0,0,0,1.3.645,1.313,1.313,0,0,0,1.47-1.329h-1.369V78.559h2.6V81.9h-.866Z" transform="translate(-104.296 -75.578)" fill="#00803d"/>
        <path id="Path_4343" data-name="Path 4343" d="M132.946,75.79h1.359v2.369h2.5V75.79h1.359v6.174H136.8V79.3h-2.5v2.665h-1.359Z" transform="translate(-107.141 -75.642)" fill="#00803d"/>
        <path id="Path_4344" data-name="Path 4344" d="M141.8,75.79h1.347l2.58,4.141h.016V75.79h1.272v6.174h-1.36l-2.567-4.134h-.017v4.134H141.8Z" transform="translate(-109.802 -75.642)" fill="#00803d"/>
      </g>
    </g>
    <g id="Group_2881" data-name="Group 2881" transform="translate(133.376 86.104)">
      <path id="Path_4345" data-name="Path 4345" d="M169.606,119.248h-1l-2.324-6.585h.95l1.883,5.706h.017l1.9-5.706h.91Z" transform="translate(-166.287 -112.663)" fill="#00803d"/>
      <path id="Path_4346" data-name="Path 4346" d="M176.048,113.622h-.783v-.959h.783Zm-.783.855h.783v4.77h-.783Z" transform="translate(-168.987 -112.663)" fill="#00803d"/>
      <path id="Path_4347" data-name="Path 4347" d="M182.078,118.468a1.862,1.862,0,0,1-2.04,1.626,2.1,2.1,0,0,1-1.7-.712,2.84,2.84,0,0,1-.59-1.8,2.554,2.554,0,0,1,.635-1.779,2.217,2.217,0,0,1,2.662-.441,1.98,1.98,0,0,1,.676.671,2.758,2.758,0,0,1,.347.883,3.607,3.607,0,0,1,.081.914h-3.572a1.545,1.545,0,0,0,.343,1.1,1.417,1.417,0,0,0,1.143.473,1.12,1.12,0,0,0,1.234-.932Zm-.757-1.329a1.409,1.409,0,0,0-.413-.95,1.3,1.3,0,0,0-.964-.4,1.271,1.271,0,0,0-.969.4,1.505,1.505,0,0,0-.4.945Z" transform="translate(-169.734 -113.397)" fill="#00803d"/>
      <path id="Path_4348" data-name="Path 4348" d="M186.069,114.644h.95v.694h-.95V118.3q0,.424.59.423h.36v.694h-.6a1.4,1.4,0,0,1-.869-.194,1.057,1.057,0,0,1-.266-.846v-3.036h-.811v-.694h.811v-1.428h.783Z" transform="translate(-171.756 -112.829)" fill="#00803d"/>
      <path id="Path_4349" data-name="Path 4349" d="M189.356,115.212h.739v.757h.018a1.649,1.649,0,0,1,1.55-.864,1.588,1.588,0,0,1,1.292.486,1.93,1.93,0,0,1,.352,1.257v3.135h-.788v-3.23a.852.852,0,0,0-.969-.959,1.331,1.331,0,0,0-1.059.428,1.55,1.55,0,0,0-.351,1.067v2.694h-.784Z" transform="translate(-173.223 -113.397)" fill="#00803d"/>
      <path id="Path_4350" data-name="Path 4350" d="M200.793,119.964a1.065,1.065,0,0,1-.563.131q-.662,0-.662-.739a2.1,2.1,0,0,1-1.68.739,1.791,1.791,0,0,1-1.112-.315,1.2,1.2,0,0,1-.465-1.022,1.229,1.229,0,0,1,.5-1.081,1.892,1.892,0,0,1,.514-.243,5.924,5.924,0,0,1,.594-.144l.617-.094a4.8,4.8,0,0,0,.513-.1q.477-.131.478-.51a.686.686,0,0,0-.347-.652,1.905,1.905,0,0,0-1.545.05.857.857,0,0,0-.361.715H196.5a1.477,1.477,0,0,1,.63-1.243,2.437,2.437,0,0,1,1.387-.351,4.072,4.072,0,0,1,.644.045,1.858,1.858,0,0,1,.577.19,1.122,1.122,0,0,1,.571,1.071v2.455c0,.358.083.536.248.536a.624.624,0,0,0,.108-.009,1.119,1.119,0,0,0,.131-.036Zm-1.27-2.446a1.5,1.5,0,0,1-.631.211l-.792.113a1.63,1.63,0,0,0-.671.244.721.721,0,0,0-.288.612.6.6,0,0,0,.283.545,1.149,1.149,0,0,0,.64.158,1.582,1.582,0,0,0,1.117-.378.929.929,0,0,0,.343-.7Z" transform="translate(-175.315 -113.397)" fill="#00803d"/>
      <path id="Path_4351" data-name="Path 4351" d="M203.764,115.212h.738v.7h.018a1.728,1.728,0,0,1,1.54-.811,1.628,1.628,0,0,1,.8.185,1.1,1.1,0,0,1,.51.626,1.661,1.661,0,0,1,1.494-.811,1.806,1.806,0,0,1,1.149.32,1.284,1.284,0,0,1,.437,1.063v3.5h-.784v-3.126a1.307,1.307,0,0,0-.176-.752.845.845,0,0,0-.748-.311,1.091,1.091,0,0,0-1.248,1.22v2.969h-.783v-3.126a1.286,1.286,0,0,0-.185-.761.809.809,0,0,0-.707-.3,1.185,1.185,0,0,0-.986.473,1.208,1.208,0,0,0-.289.748v2.969h-.783Z" transform="translate(-177.556 -113.397)" fill="#00803d"/>
      <path id="Path_4352" data-name="Path 4352" d="M218.841,112.663h.933L223.242,118h.017v-5.341h.829v6.585h-.959l-3.441-5.288h-.018v5.288h-.829Z" transform="translate(-182.089 -112.663)" fill="#00803d"/>
      <path id="Path_4353" data-name="Path 4353" d="M232.3,119.964a1.066,1.066,0,0,1-.563.131q-.662,0-.662-.739a2.1,2.1,0,0,1-1.68.739,1.8,1.8,0,0,1-1.113-.315,1.2,1.2,0,0,1-.464-1.022,1.229,1.229,0,0,1,.5-1.081,1.877,1.877,0,0,1,.513-.243,5.991,5.991,0,0,1,.594-.144l.617-.094a4.8,4.8,0,0,0,.513-.1q.477-.131.478-.51a.686.686,0,0,0-.347-.652,1.905,1.905,0,0,0-1.545.05.855.855,0,0,0-.361.715H228a1.477,1.477,0,0,1,.63-1.243,2.436,2.436,0,0,1,1.387-.351,4.079,4.079,0,0,1,.644.045,1.859,1.859,0,0,1,.577.19,1.122,1.122,0,0,1,.571,1.071v2.455c0,.358.083.536.248.536a.63.63,0,0,0,.108-.009,1.119,1.119,0,0,0,.131-.036Zm-1.27-2.446a1.509,1.509,0,0,1-.631.211l-.792.113a1.63,1.63,0,0,0-.671.244.721.721,0,0,0-.288.612.6.6,0,0,0,.283.545,1.15,1.15,0,0,0,.64.158,1.582,1.582,0,0,0,1.117-.378.929.929,0,0,0,.343-.7Z" transform="translate(-184.788 -113.397)" fill="#00803d"/>
      <path id="Path_4354" data-name="Path 4354" d="M236.137,114.644h.951v.694h-.951V118.3q0,.424.59.423h.361v.694h-.6a1.4,1.4,0,0,1-.869-.194,1.057,1.057,0,0,1-.266-.846v-3.036h-.811v-.694h.811v-1.428h.783Z" transform="translate(-186.81 -112.829)" fill="#00803d"/>
      <path id="Path_4355" data-name="Path 4355" d="M240.272,113.622h-.783v-.959h.783Zm-.783.855h.783v4.77h-.783Z" transform="translate(-188.297 -112.663)" fill="#00803d"/>
      <path id="Path_4356" data-name="Path 4356" d="M242.565,115.824a2.426,2.426,0,0,1,3.45,0,2.63,2.63,0,0,1,.59,1.779,2.6,2.6,0,0,1-.59,1.766,2.415,2.415,0,0,1-3.45,0,2.6,2.6,0,0,1-.59-1.766A2.629,2.629,0,0,1,242.565,115.824Zm.676,3.108a1.409,1.409,0,0,0,2.1,0,1.928,1.928,0,0,0,.437-1.329,1.958,1.958,0,0,0-.437-1.342,1.409,1.409,0,0,0-2.1,0,1.955,1.955,0,0,0-.437,1.342A1.924,1.924,0,0,0,243.241,118.932Z" transform="translate(-189.045 -113.397)" fill="#00803d"/>
      <path id="Path_4357" data-name="Path 4357" d="M249.916,115.212h.739v.757h.017a1.649,1.649,0,0,1,1.55-.864,1.586,1.586,0,0,1,1.292.486,1.93,1.93,0,0,1,.352,1.257v3.135h-.788v-3.23a.851.851,0,0,0-.968-.959,1.329,1.329,0,0,0-1.059.428,1.55,1.55,0,0,0-.352,1.067v2.694h-.783Z" transform="translate(-191.433 -113.397)" fill="#00803d"/>
      <path id="Path_4358" data-name="Path 4358" d="M261.352,119.964a1.062,1.062,0,0,1-.562.131q-.662,0-.662-.739a2.1,2.1,0,0,1-1.68.739,1.8,1.8,0,0,1-1.113-.315,1.2,1.2,0,0,1-.464-1.022,1.227,1.227,0,0,1,.5-1.081,1.878,1.878,0,0,1,.513-.243,5.993,5.993,0,0,1,.594-.144l.618-.094a4.834,4.834,0,0,0,.513-.1q.477-.131.478-.51a.686.686,0,0,0-.348-.652,1.905,1.905,0,0,0-1.545.05.857.857,0,0,0-.36.715h-.783a1.477,1.477,0,0,1,.63-1.243,2.434,2.434,0,0,1,1.387-.351,4.067,4.067,0,0,1,.644.045,1.857,1.857,0,0,1,.578.19,1.123,1.123,0,0,1,.571,1.071v2.455c0,.358.083.536.248.536a.632.632,0,0,0,.108-.009,1.109,1.109,0,0,0,.13-.036Zm-1.269-2.446a1.512,1.512,0,0,1-.631.211l-.792.113a1.63,1.63,0,0,0-.671.244.72.72,0,0,0-.288.612.6.6,0,0,0,.283.545,1.148,1.148,0,0,0,.64.158,1.582,1.582,0,0,0,1.117-.378.929.929,0,0,0,.343-.7Z" transform="translate(-193.524 -113.397)" fill="#00803d"/>
      <path id="Path_4359" data-name="Path 4359" d="M264.388,112.663h.783v6.585h-.783Z" transform="translate(-195.784 -112.663)" fill="#00803d"/>
      <path id="Path_4360" data-name="Path 4360" d="M276.338,116.869a2.268,2.268,0,0,1-2.594,2.536q-2.7,0-2.7-2.536v-4.206h.878v4.206a1.6,1.6,0,0,0,1.824,1.8q1.716,0,1.716-1.8v-4.206h.878Z" transform="translate(-197.785 -112.663)" fill="#00803d"/>
      <path id="Path_4361" data-name="Path 4361" d="M280.431,115.212h.738v.757h.018a1.648,1.648,0,0,1,1.549-.864,1.588,1.588,0,0,1,1.292.486,1.93,1.93,0,0,1,.352,1.257v3.135h-.788v-3.23a.852.852,0,0,0-.969-.959,1.329,1.329,0,0,0-1.058.428,1.55,1.55,0,0,0-.352,1.067v2.694h-.783Z" transform="translate(-200.608 -113.397)" fill="#00803d"/>
      <path id="Path_4362" data-name="Path 4362" d="M288.607,113.622h-.783v-.959h.783Zm-.783.855h.783v4.77h-.783Z" transform="translate(-202.831 -112.663)" fill="#00803d"/>
      <path id="Path_4363" data-name="Path 4363" d="M292.633,120.028h-.843l-1.77-4.77h.878l1.337,3.977h.019l1.3-3.977h.824Z" transform="translate(-203.491 -113.443)" fill="#00803d"/>
      <path id="Path_4364" data-name="Path 4364" d="M300.937,118.468a1.862,1.862,0,0,1-2.04,1.626,2.1,2.1,0,0,1-1.7-.712,2.848,2.848,0,0,1-.59-1.8,2.551,2.551,0,0,1,.636-1.779,2.216,2.216,0,0,1,2.662-.441,1.981,1.981,0,0,1,.676.671,2.725,2.725,0,0,1,.347.883,3.574,3.574,0,0,1,.081.914h-3.571a1.542,1.542,0,0,0,.342,1.1,1.419,1.419,0,0,0,1.144.473,1.121,1.121,0,0,0,1.234-.932Zm-.757-1.329a1.413,1.413,0,0,0-.414-.95,1.294,1.294,0,0,0-.964-.4,1.273,1.273,0,0,0-.969.4,1.5,1.5,0,0,0-.4.945Z" transform="translate(-205.472 -113.397)" fill="#00803d"/>
      <path id="Path_4365" data-name="Path 4365" d="M304.016,115.211h.738v1h.019a1.778,1.778,0,0,1,1.751-1.113v.829a1.647,1.647,0,0,0-1.338.508,2.2,2.2,0,0,0-.387,1.419v2.122h-.783Z" transform="translate(-207.7 -113.396)" fill="#00803d"/>
      <path id="Path_4366" data-name="Path 4366" d="M308.792,118.477a.823.823,0,0,0,.41.725,1.674,1.674,0,0,0,.874.2,1.849,1.849,0,0,0,.757-.131.6.6,0,0,0,.4-.581.654.654,0,0,0-.486-.6,2.882,2.882,0,0,0-.5-.154l-.572-.126c-.232-.055-.422-.106-.573-.157a2.216,2.216,0,0,1-.5-.239,1.091,1.091,0,0,1-.487-.95,1.177,1.177,0,0,1,.576-1.041,2.2,2.2,0,0,1,1.2-.315,2.458,2.458,0,0,1,1.347.31,1.4,1.4,0,0,1,.608,1.18h-.783a.78.78,0,0,0-.383-.627,1.353,1.353,0,0,0-.725-.176,1.608,1.608,0,0,0-.685.126.51.51,0,0,0-.328.482q0,.365.5.563a3.5,3.5,0,0,0,.5.144l.275.064c.117.024.209.045.275.063a5.562,5.562,0,0,1,.572.153,1.953,1.953,0,0,1,.5.243,1.1,1.1,0,0,1,.487.959,1.287,1.287,0,0,1-.653,1.176,2.589,2.589,0,0,1-1.373.329,2.4,2.4,0,0,1-1.4-.365,1.507,1.507,0,0,1-.626-1.252Z" transform="translate(-208.9 -113.397)" fill="#00803d"/>
      <path id="Path_4367" data-name="Path 4367" d="M315.89,113.622h-.784v-.959h.784Zm-.784.855h.784v4.77h-.784Z" transform="translate(-211.034 -112.663)" fill="#00803d"/>
      <path id="Path_4368" data-name="Path 4368" d="M318.832,114.644h.95v.694h-.95V118.3q0,.424.59.423h.361v.694h-.6a1.4,1.4,0,0,1-.869-.194,1.057,1.057,0,0,1-.266-.846v-3.036h-.811v-.694h.811v-1.428h.784Z" transform="translate(-211.675 -112.829)" fill="#00803d"/>
      <path id="Path_4369" data-name="Path 4369" d="M323.766,120.663q-.491,1.275-1.383,1.274a1.624,1.624,0,0,1-.545-.08v-.721l.113.036.117.036a.935.935,0,0,0,.234.036.708.708,0,0,0,.645-.432l.324-.811-1.891-4.743h.887l1.392,3.9h.017l1.338-3.9h.829Z" transform="translate(-212.92 -113.443)" fill="#00803d"/>
      <path id="Path_4370" data-name="Path 4370" d="M328.96,120.617h1.022v.932a1.338,1.338,0,0,1-1.013,1.445v-.459a.737.737,0,0,0,.432-.392,1.027,1.027,0,0,0,.1-.5h-.545Z" transform="translate(-215.2 -115.055)" fill="#00803d"/>
      <path id="Path_4371" data-name="Path 4371" d="M336.225,112.663h.878v2.829h3.468v-2.829h.873v6.585h-.873V116.23H337.1v3.018h-.878Z" transform="translate(-217.384 -112.663)" fill="#00803d"/>
      <path id="Path_4372" data-name="Path 4372" d="M349.67,119.964a1.066,1.066,0,0,1-.563.131q-.662,0-.662-.739a2.1,2.1,0,0,1-1.68.739,1.8,1.8,0,0,1-1.113-.315,1.2,1.2,0,0,1-.464-1.022,1.229,1.229,0,0,1,.5-1.081,1.886,1.886,0,0,1,.513-.243,5.993,5.993,0,0,1,.594-.144l.617-.094a4.793,4.793,0,0,0,.513-.1q.477-.131.478-.51a.686.686,0,0,0-.347-.652,1.905,1.905,0,0,0-1.545.05.857.857,0,0,0-.361.715h-.783a1.477,1.477,0,0,1,.63-1.243,2.438,2.438,0,0,1,1.387-.351,4.078,4.078,0,0,1,.644.045,1.858,1.858,0,0,1,.577.19,1.122,1.122,0,0,1,.571,1.071v2.455c0,.358.083.536.248.536a.624.624,0,0,0,.108-.009,1.119,1.119,0,0,0,.131-.036Zm-1.27-2.446a1.5,1.5,0,0,1-.631.211l-.792.113a1.63,1.63,0,0,0-.671.244.721.721,0,0,0-.288.612.6.6,0,0,0,.283.545,1.15,1.15,0,0,0,.64.158,1.582,1.582,0,0,0,1.117-.378.929.929,0,0,0,.343-.7Z" transform="translate(-220.079 -113.397)" fill="#00803d"/>
      <path id="Path_4373" data-name="Path 4373" d="M352.641,115.212h.738v.757h.018a1.647,1.647,0,0,1,1.549-.864,1.588,1.588,0,0,1,1.292.486,1.93,1.93,0,0,1,.352,1.257v3.135H355.8v-3.23a.852.852,0,0,0-.969-.959,1.329,1.329,0,0,0-1.058.428,1.55,1.55,0,0,0-.352,1.067v2.694h-.783Z" transform="translate(-222.32 -113.397)" fill="#00803d"/>
      <path id="Path_4374" data-name="Path 4374" d="M360.186,115.824a2.426,2.426,0,0,1,3.45,0,2.63,2.63,0,0,1,.59,1.779,2.6,2.6,0,0,1-.59,1.766,2.415,2.415,0,0,1-3.45,0,2.6,2.6,0,0,1-.59-1.766A2.63,2.63,0,0,1,360.186,115.824Zm.676,3.108a1.409,1.409,0,0,0,2.1,0,1.928,1.928,0,0,0,.437-1.329,1.958,1.958,0,0,0-.437-1.342,1.409,1.409,0,0,0-2.1,0,1.955,1.955,0,0,0-.437,1.342A1.924,1.924,0,0,0,360.862,118.932Z" transform="translate(-224.411 -113.397)" fill="#00803d"/>
      <path id="Path_4375" data-name="Path 4375" d="M368.385,113.622H367.6v-.959h.783Zm-.783.855h.783v4.77H367.6Z" transform="translate(-226.819 -112.663)" fill="#00803d"/>
    </g>
  </g>
</svg>
