<svg xmlns="http://www.w3.org/2000/svg" width="22" height="24" viewBox="0 0 22 24">
  <g id="icon-filter" transform="translate(-89.5 -54)">
    <path id="Line_11" data-name="Line 11" d="M8,1H0A1,1,0,0,1-1,0,1,1,0,0,1,0-1H8A1,1,0,0,1,9,0,1,1,0,0,1,8,1Z" transform="translate(102.5 75.619)" fill="#00803d"/>
    <path id="Line_16" data-name="Line 16" d="M8,1H0A1,1,0,0,1-1,0,1,1,0,0,1,0-1H8A1,1,0,0,1,9,0,1,1,0,0,1,8,1Z" transform="translate(102.5 56.619)" fill="#00803d"/>
    <path id="Line_14" data-name="Line 14" d="M8,1H0A1,1,0,0,1-1,0,1,1,0,0,1,0-1H8A1,1,0,0,1,9,0,1,1,0,0,1,8,1Z" transform="translate(90.5 66.619)" fill="#00803d"/>
    <path id="Line_12" data-name="Line 12" d="M2,1H0A1,1,0,0,1-1,0,1,1,0,0,1,0-1H2A1,1,0,0,1,3,0,1,1,0,0,1,2,1Z" transform="translate(90.5 75.619)" fill="#00803d"/>
    <path id="Line_15" data-name="Line 15" d="M2,1H0A1,1,0,0,1-1,0,1,1,0,0,1,0-1H2A1,1,0,0,1,3,0,1,1,0,0,1,2,1Z" transform="translate(90.5 56.619)" fill="#00803d"/>
    <path id="Line_13" data-name="Line 13" d="M2,1H0A1,1,0,0,1-1,0,1,1,0,0,1,0-1H2A1,1,0,0,1,3,0,1,1,0,0,1,2,1Z" transform="translate(108.5 66.619)" fill="#00803d"/>
    <circle id="Ellipse_20" data-name="Ellipse 20" cx="2.5" cy="2.5" r="2.5" transform="translate(95 73)" fill="#00803d"/>
    <circle id="Ellipse_22" data-name="Ellipse 22" cx="2.5" cy="2.5" r="2.5" transform="translate(95 54)" fill="#00803d"/>
    <circle id="Ellipse_21" data-name="Ellipse 21" cx="2.5" cy="2.5" r="2.5" transform="translate(101 64)" fill="#00803d"/>
  </g>
</svg>
