<svg xmlns="http://www.w3.org/2000/svg" width="21.4" height="23.778" viewBox="0 0 21.4 23.778">
  <path id="icon-nghiphep" d="M7.756,1A1.189,1.189,0,0,0,6.567,2.189V3.378H5.378A2.385,2.385,0,0,0,3,5.756V22.4a2.385,2.385,0,0,0,2.378,2.378H9.056A1.078,1.078,0,0,0,10.133,23.7v-.223A1.078,1.078,0,0,0,9.056,22.4H6.567a1.189,1.189,0,0,1-1.189-1.189V9.322H22.022V21.211A1.189,1.189,0,0,1,20.834,22.4H18.344a1.078,1.078,0,0,0-1.077,1.077V23.7a1.078,1.078,0,0,0,1.077,1.077h3.678A2.385,2.385,0,0,0,24.4,22.4V5.756a2.385,2.385,0,0,0-2.378-2.378H20.834V2.189a1.189,1.189,0,0,0-2.378,0V3.378H8.945V2.189A1.189,1.189,0,0,0,7.756,1Zm5.926,10.684a1.189,1.189,0,0,0-1.17,1.205v5.945a1.189,1.189,0,1,0,2.378,0V12.889a1.189,1.189,0,0,0-1.207-1.205ZM13.7,22.4a1.189,1.189,0,1,0,1.189,1.189A1.189,1.189,0,0,0,13.7,22.4Z" transform="translate(-3 -1)" fill="#00803d"/>
</svg>
