<svg id="icon-chedochinhsach" xmlns="http://www.w3.org/2000/svg" width="55.565" height="62" viewBox="0 0 55.565 62">
  <g id="Group_2894" data-name="Group 2894" transform="translate(0)">
    <path id="Path_4379" data-name="Path 4379" d="M136.248,202.422A2.422,2.422,0,0,0,133.826,200H108.881a2.422,2.422,0,0,0,0,4.844h24.945A2.422,2.422,0,0,0,136.248,202.422Z" transform="translate(-96.785 -175.781)" fill="#8f8f8f"/>
    <path id="Path_4380" data-name="Path 4380" d="M108.881,280a2.422,2.422,0,0,0,0,4.844h15.15a2.422,2.422,0,0,0,0-4.844Z" transform="translate(-96.785 -246.094)" fill="#8f8f8f"/>
    <path id="Path_4381" data-name="Path 4381" d="M44.357,57.156h-8.1a4.849,4.849,0,0,1-4.844-4.844V9.687a4.849,4.849,0,0,1,4.844-4.844H66.033a4.849,4.849,0,0,1,4.844,4.844V24.582a2.422,2.422,0,0,0,4.844,0V9.687A9.7,9.7,0,0,0,66.033,0H36.257A9.7,9.7,0,0,0,26.57,9.687V52.313A9.7,9.7,0,0,0,36.257,62h8.1a2.422,2.422,0,0,0,0-4.844Z" transform="translate(-26.57)" fill="#8f8f8f"/>
    <path id="Path_4382" data-name="Path 4382" d="M270.634,274.149a7.273,7.273,0,0,0-10.273,0l-13.3,13.267a2.422,2.422,0,0,0-.607,1.011l-2.9,9.533A2.422,2.422,0,0,0,246.526,301l9.775-2.708a2.421,2.421,0,0,0,1.064-.62l13.269-13.244A7.274,7.274,0,0,0,270.634,274.149Zm-16.24,19.641-4.918,1.362,1.439-4.738,8.972-8.952,3.426,3.426ZM267.211,281l-.469.468-3.425-3.425.468-.467A2.422,2.422,0,0,1,267.211,281Z" transform="translate(-217.193 -239.084)" fill="#8f8f8f"/>
    <path id="Path_4383" data-name="Path 4383" d="M133.826,120H108.881a2.422,2.422,0,0,0,0,4.844h24.945a2.422,2.422,0,1,0,0-4.844Z" transform="translate(-96.785 -105.469)" fill="#8f8f8f"/>
  </g>
</svg>
