<svg xmlns="http://www.w3.org/2000/svg" width="21.4" height="23.778" viewBox="0 0 21.4 23.778">
  <path id="icon-nghihuu" d="M15.344,23.778A1.079,1.079,0,0,1,14.267,22.7v-.222A1.078,1.078,0,0,1,15.344,21.4h2.489a1.19,1.19,0,0,0,1.189-1.189V8.322H2.378V20.211A1.19,1.19,0,0,0,3.567,21.4H6.056a1.078,1.078,0,0,1,1.077,1.077V22.7a1.079,1.079,0,0,1-1.077,1.078H2.378A2.385,2.385,0,0,1,0,21.4V4.756A2.385,2.385,0,0,1,2.378,2.378H3.567V1.189a1.189,1.189,0,1,1,2.378,0V2.378h9.511V1.189a1.189,1.189,0,1,1,2.378,0V2.378h1.189A2.385,2.385,0,0,1,21.4,4.756V21.4a2.385,2.385,0,0,1-2.378,2.378ZM9.511,22.589A1.189,1.189,0,1,1,10.7,23.778,1.188,1.188,0,0,1,9.511,22.589Zm-4.353-2.6A1.46,1.46,0,0,1,3.7,18.531v-7a1.46,1.46,0,0,1,1.458-1.459H16.241A1.46,1.46,0,0,1,17.7,11.532v7a1.46,1.46,0,0,1-1.459,1.459Zm0-6.417v4.083a.585.585,0,0,0,.584.583h5.541a.584.584,0,0,0,.583-.583V13.573a.584.584,0,0,0-.583-.583H9.825v-.583a.585.585,0,0,0-.584-.583H7.783a.584.584,0,0,0-.583.583v.583H5.742A.585.585,0,0,0,5.158,13.573Zm9.917,4.083a.292.292,0,1,0,.292-.292A.292.292,0,0,0,15.075,17.656Zm-.875,0a.292.292,0,1,0,.292-.292A.292.292,0,0,0,14.2,17.656Zm-.875,0a.292.292,0,1,0,.292-.292A.292.292,0,0,0,13.325,17.656Zm-.876,0a.292.292,0,1,0,.292-.292A.292.292,0,0,0,12.45,17.656Zm-2.333,0V13.573H10.7v4.083Zm-3.792,0V13.573h.583v4.083ZM7.783,12.99v-.583H9.241v.583Z" fill="#00803d"/>
</svg>
