<svg xmlns="http://www.w3.org/2000/svg" width="17.958" height="15.964" viewBox="0 0 17.958 15.964">
  <path id="icon-xuatbieumau" d="M11.973,3.8a.746.746,0,0,0-.218-.527L8.7.218A.748.748,0,0,0,8.172,0h-.19V3.991h3.991ZM17.8,9.6,14.82,6.6a.5.5,0,0,0-.854.352V8.98h-2v2h2v2.033a.5.5,0,0,0,.854.352L17.8,10.352A.531.531,0,0,0,17.8,9.6Zm-11.817.873v-1a.5.5,0,0,1,.5-.5h5.488V4.989H7.733a.751.751,0,0,1-.748-.748V0H.748A.747.747,0,0,0,0,.748V15.216a.747.747,0,0,0,.748.748H11.225a.747.747,0,0,0,.748-.748V10.975H6.486A.5.5,0,0,1,5.987,10.477Z" fill="#8f8f8f"/>
</svg>
