<svg xmlns="http://www.w3.org/2000/svg" width="19.667" height="22.175" viewBox="0 0 19.667 22.175">
  <path id="icon-banhanh" d="M6.442,4A3.446,3.446,0,0,0,3,7.442v.983a.493.493,0,0,0,.492.492H16.275a.491.491,0,0,0,.492-.492V6.95A3.44,3.44,0,0,1,18.441,4Zm13.767.492A2.458,2.458,0,0,0,17.75,6.95V8.425A1.478,1.478,0,0,1,16.275,9.9H5.95V24.158a.491.491,0,0,0,.492.492h7.375v1.029a.492.492,0,0,0,.784.4l1.675-1.26,1.675,1.26a.492.492,0,0,0,.784-.4V24.65h3.442a.49.49,0,0,0,.492-.492V6.95A2.458,2.458,0,0,0,20.208,4.492ZM9.392,11.375h9.833v.983H9.392Zm0,2.95h9.833v.983H9.392Zm6.883,2.551a.7.7,0,0,1,.691.492c.05.05.044.061.092.061a.755.755,0,0,1,.845.046.671.671,0,0,1,.184.784c0,.05.061.044.061.092a.736.736,0,0,1,.584.6.726.726,0,0,1-.338.737v.138a.771.771,0,0,1,.046.8.744.744,0,0,1-.63.353.66.66,0,0,1-.108-.015c0,.05-.06.044-.108.092a.63.63,0,0,1-.43.645.434.434,0,0,1-.246.046.819.819,0,0,1-.553-.246h-.184a.83.83,0,0,1-.8.2.7.7,0,0,1-.43-.645c0-.05-.058-.044-.108-.092a.693.693,0,0,1-.108.015.743.743,0,0,1-.63-.353.683.683,0,0,1,.046-.8v-.138a.726.726,0,0,1-.338-.737.734.734,0,0,1,.584-.6c0-.05.061-.044.061-.092a.672.672,0,0,1,.184-.784.755.755,0,0,1,.845-.046c.05-.05.044-.061.092-.061A.741.741,0,0,1,16.275,16.875ZM14.8,22.5a1.583,1.583,0,0,0,.23.108c.017.008.029.025.046.031a1.737,1.737,0,0,0,.553.077,1.688,1.688,0,0,0,.63-.123,1.726,1.726,0,0,0,.661.138,1.377,1.377,0,0,0,.615-.123,1.65,1.65,0,0,0,.215-.092v2.2l-1.183-.891a.49.49,0,0,0-.584,0l-1.183.891Z" transform="translate(-3 -4)" fill="#00803d"/>
</svg>
